PathFileType	4	(X/Y/Z)	C:/Users/opensim2020/Desktop/walking_exp_matlab/subject06_walking21_straight_04.trc	
DataRate	CameraRate	NumFrames	NumMarkers	Units	OrigDataRate	OrigDataStartFrame	OrigNumFrames	
100.00	100.00	6	44	mm	100.00	2374	104	
Frame#	Time	LFHD			RFHD			LBHD			RBHD			C7			T10			CLAV			STRN			RBAK			LSHO			LUPA			LELB			LFRM			LWRA			LWRB			LFIN			RSHO			RUPA			RELB			RFRM			RWRA			RWRB			RFIN			LASI			RASI			LPSI			RPSI			LTHI			LKNE			LTIB			LANK			LHEE			LTOE			RTHI			RKNE			RTIB			RANK			RHEE			RTOE			*39			*40			*41			*42			*43			
		X1	Y1	Z1	X2	Y2	Z2	X3	Y3	Z3	X4	Y4	Z4	X5	Y5	Z5	X6	Y6	Z6	X7	Y7	Z7	X8	Y8	Z8	X9	Y9	Z9	X10	Y10	Z10	X11	Y11	Z11	X12	Y12	Z12	X13	Y13	Z13	X14	Y14	Z14	X15	Y15	Z15	X16	Y16	Z16	X17	Y17	Z17	X18	Y18	Z18	X19	Y19	Z19	X20	Y20	Z20	X21	Y21	Z21	X22	Y22	Z22	X23	Y23	Z23	X24	Y24	Z24	X25	Y25	Z25	X26	Y26	Z26	X27	Y27	Z27	X28	Y28	Z28	X29	Y29	Z29	X30	Y30	Z30	X31	Y31	Z31	X32	Y32	Z32	X33	Y33	Z33	X34	Y34	Z34	X35	Y35	Z35	X36	Y36	Z36	X37	Y37	Z37	X38	Y38	Z38	X39	Y39	Z39	X40	Y40	Z40	X41	Y41	Z41	X42	Y42	Z42	X43	Y43	Z43	X44	Y44	Z44	

92	0.910	1507.78979	-242.93555	1643.20544	1376.42480	-236.73866	1628.06274	1515.09692	-107.63005	1593.70422	1386.14001	-103.37529	1583.97009	1457.31055	-100.18733	1430.41797	1447.33435	-70.76584	1099.48828	1457.15784	-211.27248	1354.05676	1461.88696	-254.10297	1179.98828	1370.94458	-31.31076	1258.64087	1619.21790	-151.43883	1380.98059	1687.01770	-108.15535	1183.13794	1695.48401	-73.42590	1075.53052	1721.90417	-54.72617	928.20471	1689.65833	-85.44875	798.15387	1718.97473	-21.95920	813.60590	1723.02795	-31.43497	723.46423	1295.92761	-165.86736	1389.11633	1193.23499	-131.22150	1200.19543	1170.10217	-149.84528	1084.42627	1155.14136	-219.57069	991.78943	1197.97815	-342.96182	914.71002	1156.11218	-301.26761	882.72736	1158.89087	-375.39008	844.52295	1556.77234	-253.66118	947.06824	1337.22363	-246.33321	945.48071	1538.61877	-94.06343	964.99585	1369.55933	-94.74547	971.11810	1637.36707	-260.20743	638.46661	1609.53418	-332.69620	493.48956	1610.50183	-368.30591	242.52060	1576.90137	-422.23135	76.00802	1528.33142	-391.50562	51.05410	1581.34070	-568.50623	83.27637	1302.79175	-144.45633	616.13208	1327.46960	-116.30751	492.21628	1340.48132	24.64576	258.01050	1393.38171	108.88334	93.89610	1438.39954	155.43095	81.68802	1393.16211	-31.02196	35.32775	1451.20532	-141.43500	1682.87683												 
93	0.920	1507.94202	-258.76373	1641.40356	1376.62915	-252.30731	1626.11060	1515.53125	-123.40652	1591.96521	1386.61609	-118.96191	1582.13403	1457.87939	-115.55376	1428.77148	1447.94397	-86.31936	1097.62817	1457.65015	-226.51527	1352.21460	1462.21338	-269.45767	1178.17004	1371.52234	-46.57684	1256.93518	1619.93079	-166.92909	1379.21228	1687.56384	-121.99035	1181.82764	1695.85193	-86.10784	1074.64148	1722.25220	-65.12077	927.53961	1690.09998	-93.74765	797.44189	1719.60828	-30.56575	813.82654	1723.11719	-38.33759	723.07568	1296.44434	-181.08466	1387.33960	1193.80334	-146.65237	1198.38940	1170.69653	-165.60561	1082.79346	1155.92493	-236.51500	991.23578	1198.79846	-361.05273	916.76007	1157.48413	-319.76486	883.54865	1160.00122	-394.66220	846.98151	1557.00366	-270.39444	945.61169	1337.41113	-262.15051	943.93860	1539.74316	-109.97711	963.29681	1370.97705	-110.52283	968.98615	1638.56787	-277.66818	637.09845	1609.80798	-349.34674	492.14044	1610.54919	-390.47919	241.59679	1577.02759	-449.41064	76.89987	1528.96716	-419.18436	50.25928	1579.87646	-595.64337	89.71748	1302.87219	-158.90897	614.82587	1327.44299	-130.07051	490.87946	1339.85754	16.64329	259.80280	1391.90723	106.20443	98.40974	1436.52844	153.19890	87.76405	1393.22131	-31.20426	35.36324	1451.60364	-157.17061	1681.06384												 
94	0.930	1508.16919	-274.57184	1639.84448	1376.81677	-267.82706	1624.36938	1516.16016	-139.22249	1590.60010	1387.23157	-134.46857	1580.57056	1458.58765	-131.03033	1427.07275	1448.75574	-102.20439	1095.92188	1458.21948	-241.91498	1350.64636	1462.79529	-285.13269	1176.81592	1372.32190	-61.98505	1255.36353	1620.62671	-182.46187	1377.73279	1688.37537	-136.05475	1180.94006	1696.51855	-98.96076	1073.99695	1723.13855	-76.46967	927.45020	1690.16260	-102.91390	796.89557	1720.01965	-40.68408	813.72198	1723.29053	-47.11090	723.22864	1297.14673	-196.19415	1385.84827	1194.69434	-162.06520	1196.85583	1171.62781	-181.08376	1081.46741	1156.84363	-252.69695	990.73608	1199.55640	-378.30112	918.35791	1158.87732	-337.30530	884.13177	1161.12000	-412.83884	848.94006	1557.17249	-287.32230	944.57452	1337.79138	-277.99817	942.55377	1541.31714	-127.79639	961.79205	1372.39624	-126.68073	967.03394	1638.91138	-296.51981	636.81012	1609.95642	-366.12796	491.15771	1610.66431	-411.23315	240.90430	1576.72363	-473.16162	77.33338	1529.13354	-443.49243	49.33725	1578.20361	-618.99872	94.46043	1302.89587	-174.10326	613.51923	1327.49988	-145.06383	489.51440	1338.98535	7.84967	262.07434	1390.34265	102.91761	103.72087	1434.64929	150.79474	95.13972	1393.27979	-31.46404	35.45010	1451.90637	-172.95358	1679.53833												 
95	0.940	1508.29285	-290.50793	1638.62524	1376.96826	-283.32663	1622.89575	1516.73730	-155.05310	1589.55054	1387.89050	-149.94119	1579.28369	1459.30298	-146.26814	1425.69189	1449.49268	-118.43739	1094.46497	1458.91248	-257.41635	1349.44299	1463.34607	-300.97919	1175.82874	1373.27649	-77.50267	1253.89648	1621.32642	-197.97079	1376.63928	1689.21619	-150.41183	1180.45361	1697.34937	-112.56844	1073.72522	1723.49658	-88.79539	927.15869	1690.30847	-113.82224	796.52728	1720.77954	-51.90214	813.98035	1723.40540	-57.28410	723.35925	1297.91077	-211.27383	1384.66089	1195.59961	-177.25906	1195.57800	1172.73877	-196.16431	1080.36621	1157.93372	-268.43945	990.21637	1200.30017	-394.70572	919.43372	1160.23462	-353.95511	884.42523	1162.16272	-429.77405	850.14313	1557.32825	-304.50204	944.00989	1337.93335	-294.41888	941.50281	1542.55200	-144.95235	960.60669	1373.78699	-143.27118	965.38245	1638.86548	-315.34308	636.56433	1610.08997	-383.30521	490.66522	1610.76282	-430.95865	240.42216	1576.28625	-493.13318	76.90409	1529.14526	-463.10715	48.51263	1576.02356	-638.78430	96.74180	1302.89014	-190.18785	612.33649	1327.55188	-161.03592	488.20184	1339.00146	-1.67426	264.84387	1388.80212	98.78498	109.69809	1432.73413	147.03267	103.23643	1393.34717	-31.89730	35.53546	1452.25903	-188.79314	1678.34094												 
96	0.950	1508.41931	-306.48663	1637.68555	1377.13928	-298.85101	1621.66394	1517.37122	-170.92175	1588.94727	1388.59351	-165.34904	1578.44128	1460.16687	-161.46890	1424.63098	1450.38672	-134.87100	1093.25830	1459.67566	-272.95377	1348.59521	1464.08093	-316.98914	1175.14453	1374.48462	-93.07279	1252.55774	1622.05334	-213.52165	1375.94177	1690.20569	-165.09525	1180.29492	1698.31580	-126.79110	1073.74707	1724.67322	-102.14912	927.47675	1690.36841	-125.28996	796.09753	1721.82471	-64.29861	814.60095	1723.68884	-68.97907	723.54749	1298.70984	-226.28145	1383.70996	1196.73926	-192.13287	1194.52124	1174.03943	-211.00769	1079.44470	1159.02954	-283.48242	989.78583	1201.18469	-410.38705	919.98077	1161.60266	-369.52609	884.44366	1163.17712	-445.71783	850.72668	1557.61426	-321.94730	943.80896	1338.33875	-311.07397	940.68268	1543.59631	-162.37654	959.82648	1375.08252	-160.31798	964.09155	1638.73218	-334.29208	636.70959	1610.09509	-401.15952	490.82855	1611.41565	-449.29166	240.05927	1575.77222	-510.16949	75.96424	1529.34668	-479.10675	47.21545	1573.31091	-655.21002	96.61295	1302.91345	-207.16196	611.24017	1327.48157	-178.06660	486.99692	1338.34717	-12.58900	267.86475	1387.47192	93.75947	116.55798	1431.19812	142.19569	112.48549	1393.37317	-32.49371	35.63418	1452.61670	-204.60020	1677.50525												 
97	0.960	1508.49268	-322.32150	1636.98767	1377.31006	-314.24649	1620.72131	1517.99561	-186.79918	1588.77490	1389.37012	-180.67654	1577.88550	1460.93005	-176.86743	1423.82190	1451.36816	-151.64906	1092.20349	1460.43115	-288.45444	1348.05078	1464.79126	-333.21597	1174.88940	1375.71558	-108.78848	1251.33472	1622.86292	-229.01973	1375.59656	1691.37280	-180.16451	1180.42029	1699.49646	-141.64990	1073.93066	1725.63135	-116.49403	927.75153	1690.76575	-139.03436	796.64246	1722.84741	-78.05237	815.04443	1724.18530	-82.29050	723.93512	1299.58435	-241.19698	1382.98315	1197.88745	-206.85271	1193.76404	1175.39648	-225.40430	1078.74048	1160.27612	-298.03943	989.19110	1202.06177	-425.14978	919.93164	1162.81470	-384.33972	884.10425	1164.06958	-460.64758	850.64270	1558.03479	-339.50909	943.82495	1338.99805	-328.06924	940.09399	1544.55811	-180.19611	959.40424	1376.28271	-177.77327	963.17914	1638.45129	-353.37787	637.13239	1609.93298	-419.74661	491.31903	1611.90295	-465.96790	239.21732	1575.66992	-523.66394	74.17188	1530.26123	-491.37427	45.89018	1570.03394	-668.58069	94.01175	1302.98486	-224.77809	610.18964	1327.30896	-196.28993	485.80014	1338.26245	-24.14181	271.64816	1386.61267	87.66507	124.29387	1430.24597	135.85562	122.75336	1393.38208	-33.35324	35.76741	1452.99158	-220.48605	1677.02478												 
